<?xml version="1.0" encoding="UTF-8" standalone="no"?>
<!-- Created with Inkscape (http://www.inkscape.org/) -->

<svg
   width="300mm"
   height="300mm"
   viewBox="0 0 300 300"
   version="1.1"
   id="svg1"
   inkscape:version="1.3.2 (091e20e, 2023-11-25)"
   sodipodi:docname="lasercutting.svg"
   xmlns:inkscape="http://www.inkscape.org/namespaces/inkscape"
   xmlns:sodipodi="http://sodipodi.sourceforge.net/DTD/sodipodi-0.dtd"
   xmlns="http://www.w3.org/2000/svg"
   xmlns:svg="http://www.w3.org/2000/svg">
  <sodipodi:namedview
     id="namedview1"
     pagecolor="#ffffff"
     bordercolor="#000000"
     borderopacity="0.25"
     inkscape:showpageshadow="2"
     inkscape:pageopacity="0.0"
     inkscape:pagecheckerboard="0"
     inkscape:deskcolor="#d1d1d1"
     inkscape:document-units="mm"
     showgrid="true"
     inkscape:zoom="0.78751405"
     inkscape:cx="568.87874"
     inkscape:cy="382.2154"
     inkscape:window-width="1920"
     inkscape:window-height="1027"
     inkscape:window-x="0"
     inkscape:window-y="394"
     inkscape:window-maximized="0"
     inkscape:current-layer="layer1">
    <inkscape:grid
       id="grid1"
       units="mm"
       originx="0"
       originy="0"
       spacingx="0.99999999"
       spacingy="0.99999999"
       empcolor="#0099e5"
       empopacity="0.30196078"
       color="#0099e5"
       opacity="0.14901961"
       empspacing="5"
       dotted="false"
       gridanglex="30"
       gridanglez="30"
       visible="true"
       enabled="true" />
    <inkscape:grid
       type="axonomgrid"
       id="grid7"
       units="mm"
       originx="0"
       originy="0"
       spacingx="0"
       spacingy="0.99999999"
       empcolor="#0099e5"
       empopacity="0.30196078"
       color="#0099e5"
       opacity="0.14901961"
       empspacing="5"
       dotted="false"
       gridanglex="30"
       gridanglez="30"
       visible="true"
       enabled="false" />
  </sodipodi:namedview>
  <defs
     id="defs1" />
  <g
     inkscape:label="Layer 1"
     inkscape:groupmode="layer"
     id="layer1">
    <path
       id="rect1"
       style="fill:none;stroke:#000000;stroke-width:0.1"
       d="m 0,-54 h 18 v 27.999999 H 0 Z"
       sodipodi:nodetypes="ccccc" />
    <path
       id="rect2"
       style="fill:none;stroke:#000000;stroke-width:0.1"
       d="m 20,-45 h 10 v 10 H 20 Z"
       sodipodi:nodetypes="ccccc" />
    <path
       id="path4"
       style="fill:none;stroke:#000000;stroke-width:0.1"
       d="m 30,-51 h 2 v 21.999999 h -2 z"
       sodipodi:nodetypes="ccccc" />
    <path
       id="path5"
       style="fill:none;stroke:#000000;stroke-width:0.1"
       d="m 18,-44 h 2 v 8 h -2 z"
       sodipodi:nodetypes="ccccc" />
    <path
       id="path6"
       style="fill:none;stroke:#000000;stroke-width:0.1"
       d="m 32,-80.000001 3,0 V 8.447266e-8 l -3,-3.8964844e-7 z"
       sodipodi:nodetypes="ccccc" />
    <path
       id="path7"
       style="fill:none;stroke:#000000;stroke-width:0.1"
       d="m 17,-61 h 1 l 0,42 h -1 z"
       sodipodi:nodetypes="ccccc" />
    <path
       id="path3"
       style="fill:none;stroke:#000000;stroke-width:0.1"
       d="m 9.05,-80.05 2.95,0.05 V 4.7964845e-7 L 9.05,-0.04999913 Z"
       sodipodi:nodetypes="ccccc" />
    <path
       id="rect3"
       style="fill:none;stroke:#000000;stroke-width:0.1"
       d="M 2.0000006,-83.000001 H 42 v 3 H 2.0000003 Z"
       sodipodi:nodetypes="ccccc" />
    <path
       id="rect4"
       style="fill:none;stroke:#000000;stroke-width:0.1"
       d="m 35,-75.000001 -3,0 v 5 l -20,0 v -5 H 9.0000001 v -5 l 25.9999999,0 z"
       sodipodi:nodetypes="ccccccccc" />
    <g
       id="g11" />
    <g
       id="g13"
       transform="rotate(60,84.985571,-39.991884)" />
    <path
       id="path16"
       style="fill:none;stroke:#000000;stroke-width:0.1"
       d="m 36,-86.000001 h 3 v 9 L 36.000001,-77 Z"
       sodipodi:nodetypes="ccccc" />
    <path
       id="path17"
       style="fill:none;stroke:#000000;stroke-width:0.1"
       d="m 5.0000003,-86.000001 h 3 v 9 L 5.0000013,-77 Z"
       sodipodi:nodetypes="ccccc" />
    <path
       id="path18"
       style="fill:none;stroke:#000000;stroke-width:0.1"
       d="m 14,-60 h 3 v 40 h -3 z"
       sodipodi:nodetypes="ccccc" />
    <g
       id="g26"
       transform="translate(-61.984163,66.015837)">
      <circle
         style="fill:none;stroke:#000000;stroke-width:0.1;stroke-dasharray:none"
         id="circle19"
         cx="67.500153"
         cy="-39.99987"
         r="1.5" />
      <circle
         style="fill:none;stroke:#000000;stroke-width:0.1;stroke-dasharray:none"
         id="circle20"
         cx="102.50015"
         cy="-39.99987"
         r="1.5" />
      <path
         id="path20"
         style="fill:none;stroke:#000000;stroke-width:0.1"
         d="m 76.999951,-57.000138 v 5.508191 c -3.595632,2.533165 -5.950085,6.709336 -5.950024,11.442195 0.01195,4.546113 2.230578,8.803392 5.950024,11.417391 v 8.632548 h 16.000057 v -8.557617 c 3.779126,-2.606983 6.03989,-6.901237 6.050277,-11.492322 6e-5,-4.777079 -2.397707,-8.988193 -6.050277,-11.514026 v -5.43636 H 90.000191 79.999768 Z" />
      <path
         id="path23"
         style="fill:none;stroke:#000000;stroke-width:0.1"
         d="m 71.000001,-60 -2e-4,5.730444 c -3.699706,3.628611 -5.999726,8.678203 -5.999634,14.26993 0.01901,5.34886 2.179821,10.467247 5.999634,14.211536 l 2e-4,11.78809 3,3 h 22 l 3,-3 1.58e-4,-11.787573 c 3.820131,-3.744329 5.981141,-8.862938 6.000151,-14.212053 9e-5,-5.59183 -2.30028,-10.641356 -6.000151,-14.26993 L 99.000001,-60 95.999825,-62.999772 H 74.000134 Z"
         sodipodi:nodetypes="ccccccccccccccc" />
    </g>
    <path
       style="fill:none;stroke:#000000;stroke-width:0.1"
       d="m 14.025,-50.975001 v 3 h 3 v -3 h 3 v 21.999999 h -3 v -3 h -3 v 3 H -2.9749995 l -1e-6,-10.999999 -3.0249997,-0.025 v 11 h -3.0000001 v -11 H -12 l 10e-7,10.999999 -17.000001,10e-7 v -3 h -3.096719 l 0.09672,3 H -35 V -51 h 3.000001 v 3 H -29 v -3 c 31.7828087,-0.01001 32.0048141,0.01317 43.025,0.025 z"
       id="path26"
       sodipodi:nodetypes="ccccccccccccccccccccccccccccc" />
    <path
       id="path27"
       style="fill:none;stroke:#000000;stroke-width:0.1"
       d="m -6,-51 h 3 l -2.1e-6,21.999998 -2.999999,10e-7 z"
       sodipodi:nodetypes="ccccc" />
    <path
       id="path28"
       style="fill:none;stroke:#000000;stroke-width:0.1"
       d="m -12,-51 h 2.9999999 l -1e-6,21.999999 L -12,-29 Z"
       sodipodi:nodetypes="ccccc" />
    <path
       style="fill:none;stroke:#000000;stroke-width:0.1"
       d="m 46.973758,110.76165 -21.950001,0.05 -0.05,152.95 h 19 v -9 h 3.000001 v -48 h -3.000001 v -6 h 3.000001 v -47 H 35.973757 v -3 h 11.000001 v -31 H 35.973757 v -3 h 11.000001 z"
       id="path29"
       sodipodi:nodetypes="ccccccccccccccccccc" />
    <g
       id="g38"
       transform="translate(12.000001,33)">
      <path
         id="path31"
         style="fill:none;stroke:#000000;stroke-width:0.1"
         d="m 75.000001,2 h 3 V 5 H 153 V 2 h 3 v 6.0000001 h -3 V 62 h 3 v 6.000001 h -3 v -3 H 78.000003 v 3 h -3 L 75.000001,62 h 3 V 8.0000001 h -3 z"
         sodipodi:nodetypes="ccccccccccccccccccccc" />
      <path
         id="path32"
         style="fill:none;stroke:#000000;stroke-width:0.1"
         d="m 111,11 h 3 v 48 h -3 z"
         sodipodi:nodetypes="ccccc" />
      <path
         id="path33"
         style="fill:none;stroke:#000000;stroke-width:0.1"
         d="m 117,11 h 3 v 48 h -3 z"
         sodipodi:nodetypes="ccccc" />
      <path
         id="path42"
         style="fill:none;stroke:#000000;stroke-width:0.1"
         d="m 75.000003,109 h 3 v 3 H 153 v -3 h 3 v 6 h -3 v 54 h 3 v 6 h -3 v -3 H 78.000005 v 3 h -3 l -2e-6,-6 h 3 v -54 h -3 z"
         sodipodi:nodetypes="ccccccccccccccccccccc" />
    </g>
    <path
       id="path34"
       style="fill:none;stroke:#000000;stroke-width:0.1"
       d="m 172.60611,104.25362 h 3 l 0.05,-3.05 h 3 v -3.000001 h 23 v 3.000001 h 3 v 3 h 3 v 54 h -3 v 3 h -3 v 3 h -23 v -3 h -3 v -3 h -3 z"
       sodipodi:nodetypes="ccccccccccccccccccccc" />
    <g
       id="g39"
       transform="translate(-73.000001,-11.000001)">
      <path
         id="path35"
         style="fill:none;stroke:#000000;stroke-width:0.1"
         d="m 78,77.000001 -3.049999,0.05 0.05,-3.05 h 3 v -3 H 153 v 3 h 3 v 3 h -3 V 100 h 3 v 3 h -3 v 3 H 78.000002 v -3 h -3 v -3 l 3.049999,-0.05 z"
         sodipodi:nodetypes="ccccccccccccccccccccc" />
      <path
         id="path37"
         style="fill:none;stroke:#000000;stroke-width:0.1"
         d="m 111,84.000001 h 3 V 103 h -3 z"
         sodipodi:nodetypes="ccccc" />
      <path
         id="path38"
         style="fill:none;stroke:#000000;stroke-width:0.1"
         d="m 117,84.000001 h 3 V 103 h -3 z"
         sodipodi:nodetypes="ccccc" />
    </g>
    <g
       id="g41"
       transform="translate(12,34)">
      <path
         id="path41"
         style="fill:none;stroke:#000000;stroke-width:0.1"
         d="m 120,84.000001 h -3 V 106 h -3 V 84.000001 h -3 V 106 H 78.000002 l -10e-7,-3 h -3 l 0,-3 h 3 L 78,77.000001 l -2.999999,0 0,-3 3,0 v -3 H 153 v 3 h 3 v 3 h -3 V 100 h 3 v 3 h -3 v 3 h -33 z"
         sodipodi:nodetypes="ccccccccccccccccccccccccccccc" />
    </g>
    <path
       style="fill:none;stroke:#000000;stroke-width:0.1"
       d="M 25.073757,263.76165 H 6.0737566 v -9 h -3.000001 v -48 h 3.000001 v -6 h -3.000001 v -47 H 14.073757 v -3 H 3.0737556 v -31 H 14.073757 v -3 H 3.0737556 v -6 l 21.9500014,0.05"
       id="path43"
       sodipodi:nodetypes="cccccccccccccccccc" />
    <g
       id="g45"
       transform="translate(-21.984163,66.015837)">
      <circle
         style="fill:none;stroke:#000000;stroke-width:0.1;stroke-dasharray:none"
         id="circle43"
         cx="67.500153"
         cy="-39.99987"
         r="1.5" />
      <circle
         style="fill:none;stroke:#000000;stroke-width:0.1;stroke-dasharray:none"
         id="circle44"
         cx="102.50015"
         cy="-39.99987"
         r="1.5" />
      <path
         id="path44"
         style="fill:none;stroke:#000000;stroke-width:0.1"
         d="m 76.999951,-57.000138 v 5.508191 c -3.595632,2.533165 -5.950085,6.709336 -5.950024,11.442195 0.01195,4.546113 2.230578,8.803392 5.950024,11.417391 v 8.632548 h 16.000057 v -8.557617 c 3.779126,-2.606983 6.03989,-6.901237 6.050277,-11.492322 6e-5,-4.777079 -2.397707,-8.988193 -6.050277,-11.514026 v -5.43636 H 90.000191 79.999768 Z" />
      <path
         id="path45"
         style="fill:none;stroke:#000000;stroke-width:0.1"
         d="m 71.000001,-60 -2e-4,5.730444 c -3.699706,3.628611 -5.999726,8.678203 -5.999634,14.26993 0.01901,5.34886 2.179821,10.467247 5.999634,14.211536 l 2e-4,11.78809 3,3 h 22 l 3,-3 1.58e-4,-11.787573 c 3.820131,-3.744329 5.981141,-8.862938 6.000151,-14.212053 9e-5,-5.59183 -2.30028,-10.641356 -6.000151,-14.26993 L 99.000001,-60 95.999825,-62.999772 H 74.000134 Z"
         sodipodi:nodetypes="ccccccccccccccc" />
    </g>
    <g
       id="g63"
       transform="translate(71.407732,124.33666)">
      <g
         id="g50"
         transform="rotate(120,132.525,-12.578314)">
        <path
           id="path50"
           style="fill:none;stroke:#000000;stroke-width:0.1"
           d="m 103.30653,-5.3996624 2.61638,-1.5683029 2.48744,4.3183648 20.69194,-35.9110735 -4.99849,-0.0015 -0.05,-3.050003 4.99814,-0.008 -20.76962,-35.862729 -2.49949,4.328455 -2.66637,-1.481696 2.50161,-4.33621 -41.448719,0.05943 2.495255,4.328791 -2.616372,1.568295 -2.503148,-4.324596 -20.686057,35.919523 5.008318,-6.93e-4 0.05,3.049992 -5.00516,-0.006 20.767535,35.9024358 2.50858,-4.3542048 2.66638,1.4817 -2.508292,4.3129486 41.45217,-0.027252 z"
           sodipodi:nodetypes="ccccccccccccccccccccccccc" />
      </g>
      <path
         id="path51"
         style="fill:none;stroke:#000000;stroke-width:0.1"
         d="M 210,-40 A 30.000002,30.000002 0 0 1 180,-9.9999978 30.000002,30.000002 0 0 1 150,-40 30.000002,30.000002 0 0 1 180,-70.000002 30.000002,30.000002 0 0 1 210,-40 Z" />
    </g>
    <g
       id="g62"
       transform="translate(167.46565,212.6464)">
      <circle
         style="fill:none;stroke:#000000;stroke-width:0.1;stroke-dasharray:none"
         id="path9"
         cx="85"
         cy="-40"
         r="1.5" />
      <circle
         style="fill:none;stroke:#000000;stroke-width:0.1;stroke-dasharray:none"
         id="circle9"
         cx="93"
         cy="-40"
         r="1.5" />
      <circle
         style="fill:none;stroke:#000000;stroke-width:0.1;stroke-dasharray:none"
         id="circle10"
         cx="77"
         cy="-40"
         r="1.5" />
      <circle
         style="fill:none;stroke:#000000;stroke-width:0.1;stroke-dasharray:none"
         id="circle11"
         cx="-32"
         cy="-85"
         r="1.5"
         transform="rotate(90)" />
      <circle
         style="fill:none;stroke:#000000;stroke-width:0.1;stroke-dasharray:none"
         id="circle12"
         cx="-48"
         cy="-85"
         r="1.5"
         transform="rotate(90)" />
      <g
         id="g15"
         transform="rotate(120,84.985569,-39.991885)">
        <path
           id="path15"
           style="fill:none;stroke:#000000;stroke-width:0.1"
           d="m 103.30653,-5.3996624 2.61638,-1.5683029 2.48744,4.3183648 20.69194,-35.9110735 -4.99849,-0.0015 -0.05,-3.050003 4.99814,-0.008 -20.76962,-35.862729 -2.49949,4.328455 -2.66637,-1.481696 2.50161,-4.33621 -41.448719,0.05943 2.495255,4.328791 -2.616372,1.568295 -2.503148,-4.324596 -20.686057,35.919523 5.008318,-6.93e-4 0.05,3.049992 -5.00516,-0.006 20.767535,35.9024358 2.50858,-4.3542048 2.66638,1.4817 -2.508292,4.3129486 41.45217,-0.027252 z"
           sodipodi:nodetypes="ccccccccccccccccccccccccc" />
      </g>
      <path
         style="fill:none;stroke:#000000;stroke-width:0.1"
         d="m 106.57887,-62.385972 8.66025,14.999999 H 97.918617 Z"
         id="path53"
         sodipodi:nodetypes="cccc" />
      <path
         style="fill:none;stroke:#000000;stroke-width:0.1"
         d="m 84.928236,-24.885973 8.66025,14.9999988 H 76.267982 Z"
         id="path55"
         sodipodi:nodetypes="cccc" />
      <path
         style="fill:none;stroke:#000000;stroke-width:0.1"
         d="m 63.277603,-62.385972 8.66025,14.999999 H 54.617349 Z"
         id="path56"
         sodipodi:nodetypes="cccc" />
      <path
         style="fill:none;stroke:#000000;stroke-width:0.1"
         d="m 115.23912,-32.385969 -8.66026,14.999991 -8.660243,-14.999995 z"
         id="path57"
         sodipodi:nodetypes="cccc" />
      <path
         style="fill:none;stroke:#000000;stroke-width:0.1"
         d="m 71.851252,-32.335971 -8.660257,14.999996 -8.660252,-14.999998 z"
         id="path58"
         sodipodi:nodetypes="cccc" />
      <path
         style="fill:none;stroke:#000000;stroke-width:0.1"
         d="m 93.58849,-69.885969 -8.660254,14.999996 -8.660253,-14.999996 z"
         id="path59"
         sodipodi:nodetypes="cccc" />
    </g>
    <path
       id="path60"
       style="fill:none;stroke:#000000;stroke-width:0.1"
       d="M -56.999999,-83.000001 H -17 v 3 h -39.999999 z"
       sodipodi:nodetypes="ccccc" />
    <path
       style="fill:none;stroke:#000000;stroke-width:0.1"
       d="m 134,3 0.025,3.024999 h 3 v -3 h 3 v 21.999999 h -3 v -3 h -3 v 3 h -17 V 14.024999 l -3.025,-0.025 v 11 h -3 v -11 h -3 v 10.999999 l -16.999999,10e-7 v -3 l -3,1e-6 v 3 l -3,-1e-6 V 3 h 3.000001 v 3 h 2.999999 V 3 Z"
       id="path61"
       sodipodi:nodetypes="ccccccccccccccccccccccccccccc" />
    <path
       style="fill:none;stroke:#000000;stroke-width:0.1"
       d="m 194,6 h 3 V 3 h 3 v 22 h -3 v -3 h -3 v 3 H 177 V 14 h -3 v 11 h -3 V 14 h -3 v 11 h -17 v -3 h -3 v 3 h -3 V 3 h 3 v 3 h 3 V 3 h 43 z"
       id="path62"
       sodipodi:nodetypes="ccccccccccccccccccccccccccccc" />
    <path
       id="path63"
       style="fill:none;stroke:#000000;stroke-width:0.1"
       d="m 54.950002,228.05 h 3 l 0.05,-3.05 h 3 v -3 h 22.999999 v 3 h 3 v 3 h 3 v 54 h -3 v 3 h -3 v 3 H 61.000002 v -3 h -3 v -3 h -3 z"
       sodipodi:nodetypes="ccccccccccccccccccccc" />
    <g
       id="g73"
       transform="translate(68.783966,294.38839)">
      <circle
         style="fill:none;stroke:#000000;stroke-width:0.1;stroke-dasharray:none"
         id="circle63"
         cx="85"
         cy="-40"
         r="1.5" />
      <circle
         style="fill:none;stroke:#000000;stroke-width:0.1;stroke-dasharray:none"
         id="circle64"
         cx="93"
         cy="-40"
         r="1.5" />
      <circle
         style="fill:none;stroke:#000000;stroke-width:0.1;stroke-dasharray:none"
         id="circle65"
         cx="77"
         cy="-40"
         r="1.5" />
      <circle
         style="fill:none;stroke:#000000;stroke-width:0.1;stroke-dasharray:none"
         id="circle66"
         cx="-32"
         cy="-85"
         r="1.5"
         transform="rotate(90)" />
      <circle
         style="fill:none;stroke:#000000;stroke-width:0.1;stroke-dasharray:none"
         id="circle67"
         cx="-48"
         cy="-85"
         r="1.5"
         transform="rotate(90)" />
      <g
         id="g67"
         transform="rotate(120,84.985569,-39.991885)">
        <path
           id="path67"
           style="fill:none;stroke:#000000;stroke-width:0.1"
           d="m 103.30653,-5.3996624 2.61638,-1.5683029 2.48744,4.3183648 20.69194,-35.9110735 -4.99849,-0.0015 -0.05,-3.050003 4.99814,-0.008 -20.76962,-35.862729 -2.49949,4.328455 -2.66637,-1.481696 2.50161,-4.33621 -41.448719,0.05943 2.495255,4.328791 -2.616372,1.568295 -2.503148,-4.324596 -20.686057,35.919523 5.008318,-6.93e-4 0.05,3.049992 -5.00516,-0.006 20.767535,35.9024358 2.50858,-4.3542048 2.66638,1.4817 -2.508292,4.3129486 41.45217,-0.027252 z"
           sodipodi:nodetypes="ccccccccccccccccccccccccc" />
      </g>
      <path
         style="fill:none;stroke:#000000;stroke-width:0.1"
         d="m 106.57887,-62.385972 8.66025,14.999999 H 97.918617 Z"
         id="path68"
         sodipodi:nodetypes="cccc" />
      <path
         style="fill:none;stroke:#000000;stroke-width:0.1"
         d="m 84.928236,-24.885973 8.66025,14.9999988 H 76.267982 Z"
         id="path69"
         sodipodi:nodetypes="cccc" />
      <path
         style="fill:none;stroke:#000000;stroke-width:0.1"
         d="m 63.277603,-62.385972 8.66025,14.999999 H 54.617349 Z"
         id="path70"
         sodipodi:nodetypes="cccc" />
      <path
         style="fill:none;stroke:#000000;stroke-width:0.1"
         d="m 115.23912,-32.385969 -8.66026,14.999991 -8.660243,-14.999995 z"
         id="path71"
         sodipodi:nodetypes="cccc" />
      <path
         style="fill:none;stroke:#000000;stroke-width:0.1"
         d="m 71.851252,-32.335971 -8.660257,14.999996 -8.660252,-14.999998 z"
         id="path72"
         sodipodi:nodetypes="cccc" />
      <path
         style="fill:none;stroke:#000000;stroke-width:0.1"
         d="m 93.58849,-69.885969 -8.660254,14.999996 -8.660253,-14.999996 z"
         id="path73"
         sodipodi:nodetypes="cccc" />
    </g>
    <g
       id="g75"
       transform="translate(69.74189,296.11825)">
      <g
         id="g74"
         transform="rotate(120,132.525,-12.578314)">
        <path
           id="path74"
           style="fill:none;stroke:#000000;stroke-width:0.1"
           d="m 103.30653,-5.3996624 2.61638,-1.5683029 2.48744,4.3183648 20.69194,-35.9110735 -4.99849,-0.0015 -0.05,-3.050003 4.99814,-0.008 -20.76962,-35.862729 -2.49949,4.328455 -2.66637,-1.481696 2.50161,-4.33621 -41.448719,0.05943 2.495255,4.328791 -2.616372,1.568295 -2.503148,-4.324596 -20.686057,35.919523 5.008318,-6.93e-4 0.05,3.049992 -5.00516,-0.006 20.767535,35.9024358 2.50858,-4.3542048 2.66638,1.4817 -2.508292,4.3129486 41.45217,-0.027252 z"
           sodipodi:nodetypes="ccccccccccccccccccccccccc" />
      </g>
      <path
         id="path75"
         style="fill:none;stroke:#000000;stroke-width:0.1"
         d="M 210,-40 A 30.000002,30.000002 0 0 1 180,-9.9999978 30.000002,30.000002 0 0 1 150,-40 30.000002,30.000002 0 0 1 180,-70.000002 30.000002,30.000002 0 0 1 210,-40 Z" />
    </g>
    <path
       id="path92"
       style="fill:none;stroke:#000000;stroke-width:0.1"
       d="m 56.359728,128.04299 v -5 h -3 v -5 h 26 v 5 h -3 v 5"
       sodipodi:nodetypes="cccccccc" />
    <path
       id="path93"
       style="fill:none;stroke:#000000;stroke-width:0.1"
       d="m 56.359728,118.04299 v -5 h -3 v -5 h 26 v 5 h -3 v 5"
       sodipodi:nodetypes="cccccccc" />
    <path
       id="path94"
       style="fill:none;stroke:#000000;stroke-width:0.1"
       d="m 56.409728,138.09299 v -5 h -3 v -5 h 26 v 5 h -3 v 5"
       sodipodi:nodetypes="cccccccc" />
    <path
       id="path95"
       style="fill:none;stroke:#000000;stroke-width:0.1"
       d="m 56.409728,148.09299 v -5 h -3 v -5 h 26 v 5 h -3 v 5"
       sodipodi:nodetypes="cccccccc" />
    <path
       id="path97"
       style="fill:none;stroke:#000000;stroke-width:0.1"
       d="m 56.359728,158.04299 v -5 h -3 v -5 h 26 v 5 h -3 v 5"
       sodipodi:nodetypes="cccccccc" />
    <path
       id="path102"
       style="fill:none;stroke:#000000;stroke-width:0.1"
       d="m 56.359728,168.09299 v -5 h -3 v -5 h 26 v 5 h -3 v 5 z"
       sodipodi:nodetypes="ccccccccc" />
    <path
       id="path1"
       style="fill:none;stroke:#000000;stroke-width:0.1"
       d="m 177.48599,50.016762 v -5 h -3 v -5 h 26 v 5 h -3 v 5"
       sodipodi:nodetypes="cccccccc" />
    <path
       id="path2"
       style="fill:none;stroke:#000000;stroke-width:0.1"
       d="m 177.48599,40.016762 v -5 h -3 v -5 h 26 v 5 h -3 v 5"
       sodipodi:nodetypes="cccccccc" />
    <path
       id="path8"
       style="fill:none;stroke:#000000;stroke-width:0.1"
       d="m 177.53599,60.066762 v -5 h -3 v -5 h 26 v 5 h -3 v 5"
       sodipodi:nodetypes="cccccccc" />
    <path
       id="path10"
       style="fill:none;stroke:#000000;stroke-width:0.1"
       d="m 177.53599,70.066762 v -5 h -3 v -5 h 26 v 5 h -3 v 5"
       sodipodi:nodetypes="cccccccc" />
    <path
       id="path11"
       style="fill:none;stroke:#000000;stroke-width:0.1"
       d="m 177.48599,80.016762 v -5 h -3 v -5 h 26 v 5 h -3 v 5"
       sodipodi:nodetypes="cccccccc" />
    <path
       id="path12"
       style="fill:none;stroke:#000000;stroke-width:0.1"
       d="m 177.48599,90.066762 v -5 h -3 v -5 h 26 v 5 h -3 v 5 z"
       sodipodi:nodetypes="ccccccccc" />
  </g>
</svg>
